<?xml version="1.0" encoding="utf-8"?>
<!-- Generator: Adobe Illustrator 17.0.0, SVG Export Plug-In . SVG Version: 6.00 Build 0)  -->
<!DOCTYPE svg PUBLIC "-//W3C//DTD SVG 1.1//EN" "http://www.w3.org/Graphics/SVG/1.1/DTD/svg11.dtd">
<svg version="1.1" id="Camada_1" xmlns="http://www.w3.org/2000/svg" xmlns:xlink="http://www.w3.org/1999/xlink" x="0px" y="0px"
	 width="200px" height="80px" viewBox="0 0 200 80" enable-background="new 0 0 200 80" xml:space="preserve">
<g>
	<path d="M14.477,16.816c0.3-0.035,0.317-0.255,0.326-0.488c0.08-1.933,0.756-3.698,1.555-5.424c0.681-1.47,1.62-2.777,2.743-3.93
		c0.992-1.018,2.141-1.859,3.384-2.563c1.385-0.785,2.881-1.285,4.4-1.728c0.411-0.12,0.862-0.078,1.251-0.198
		c2.208-0.681,4.46-0.183,6.686-0.31c0.903-0.052,1.748,0.323,2.611,0.511c1.159,0.252,2.297,0.627,3.386,1.148
		c1.842,0.881,3.447,2.053,4.769,3.607c1.326,1.558,2.177,3.384,2.734,5.317c0.495,1.718,0.677,3.507,0.537,5.311
		c-0.029,0.372-0.215,0.526-0.568,0.526c-2.383,0-4.767,0.004-7.15-0.003c-0.437-0.001-0.675-0.244-0.711-0.687
		c-0.047-0.588-0.083-1.178-0.159-1.763c-0.3-2.297-1.388-4.096-3.428-5.25c-1.103-0.624-2.33-0.917-3.575-1.045
		c-1.498-0.154-2.993-0.017-4.425,0.465c-0.833,0.281-1.617,0.688-2.324,1.24c-1.358,1.061-2.425,2.363-2.918,4.005
		c-0.302,1.006-0.611,2.036-0.599,3.137c0.041,3.676-0.002,7.354,0.033,11.03c0.012,1.236,0.361,2.418,0.801,3.581
		c0.5,1.322,1.294,2.399,2.423,3.219c0.725,0.527,1.534,0.887,2.393,1.194c1.895,0.676,3.819,0.487,5.744,0.374
		c2.661-0.156,5.14-2.219,5.737-4.784c0.178-0.766,0.185-1.573,0.266-2.362c0.023-0.224-0.094-0.351-0.315-0.37
		c-0.165-0.014-0.332-0.014-0.498-0.014c-2.698-0.001-5.395,0.001-8.093-0.001c-0.985-0.001-1.163-0.178-1.165-1.165
		c-0.003-1.829-0.004-3.658,0.001-5.488c0.002-0.779,0.207-0.989,0.99-0.989c5.543-0.004,11.086-0.004,16.629,0.001
		c0.696,0.001,0.907,0.202,0.908,0.888c0.004,2.956,0.054,5.914-0.034,8.868c-0.035,1.16-0.388,2.305-0.746,3.433
		c-0.365,1.152-0.819,2.256-1.475,3.257c-1.135,1.733-2.564,3.183-4.382,4.221c-1.661,0.949-3.441,1.5-5.316,1.896
		c-2.738,0.578-5.485,0.53-8.208,0.227c-2.185-0.243-4.301-0.92-6.264-2.02c-2.005-1.124-3.658-2.619-4.982-4.466
		c-0.736-1.026-1.263-2.18-1.738-3.364c-0.348-0.868-0.438-1.79-0.764-2.654c-0.159-0.421-0.144-0.871-0.144-1.316
		c0-0.245,0.004-0.498-0.327-0.548C14.477,26.499,14.477,21.658,14.477,16.816z"/>
	<path d="M79.598,17.699c-1.09-0.001-2.18,0.007-3.271-0.003c-0.75-0.007-0.953-0.216-0.966-0.96c-0.007-0.388-0.015-0.777,0-1.164
		c0.075-1.921-0.683-3.443-2.221-4.57c-0.469-0.344-1.002-0.579-1.564-0.778c-1.759-0.622-3.567-0.607-5.354-0.365
		c-1.78,0.241-3.292,1.063-4.177,2.745c-0.321,0.61-0.293,1.288-0.297,1.947c-0.013,2.092,1.393,3.001,3.076,3.718
		c0.786,0.335,1.613,0.55,2.42,0.752c0.813,0.203,1.631,0.432,2.462,0.589c1.115,0.211,2.231,0.428,3.31,0.811
		c0.602,0.214,1.237,0.335,1.852,0.521c0.582,0.176,1.153,0.399,1.698,0.628c1.905,0.8,3.714,1.772,5.15,3.326
		c1.687,1.826,2.501,4.013,2.717,6.443c0.153,1.722-0.006,3.437-0.486,5.095c-0.464,1.606-1.286,3.036-2.333,4.354
		c-1.046,1.317-2.354,2.296-3.807,3.06c-1.46,0.768-3.023,1.256-4.654,1.641c-2.209,0.522-4.406,0.331-6.609,0.358
		c-1.386,0.017-2.724-0.394-4.063-0.733c-0.952-0.241-1.85-0.613-2.74-1.022c-1.753-0.805-3.261-1.931-4.545-3.363
		c-1.328-1.48-2.268-3.206-2.814-5.091c-0.406-1.403-0.767-2.854-0.653-4.359c0.039-0.514,0.003-1.034,0.007-1.552
		c0.006-0.751,0.155-0.918,0.908-0.922c1.903-0.011,3.806-0.005,5.71-0.005c0.314,0,0.629-0.004,0.942,0.009
		c0.483,0.021,0.776,0.256,0.739,0.765c-0.083,1.158,0.109,2.284,0.399,3.394c0.507,1.939,1.643,3.352,3.445,4.286
		c1.733,0.898,3.58,1.11,5.464,1.057c1.759-0.05,3.474-0.348,4.907-1.533c1.5-1.242,1.935-2.831,1.677-4.7
		c-0.204-1.478-1.135-2.302-2.381-2.943c-1.289-0.663-2.675-0.987-4.039-1.42c-0.97-0.308-1.976-0.395-2.948-0.683
		c-0.785-0.233-1.622-0.428-2.438-0.62c-1.016-0.239-2.019-0.591-2.978-1.009c-1.397-0.609-2.781-1.267-3.966-2.258
		c-1.424-1.192-2.554-2.591-3.189-4.368c-0.572-1.599-0.845-3.262-0.746-4.929c0.067-1.112,0.366-2.229,0.745-3.318
		c0.612-1.755,1.584-3.235,2.931-4.477c1.654-1.525,3.587-2.532,5.748-3.183c0.764-0.23,1.607-0.204,2.307-0.664
		c0.094-0.062,0.253-0.033,0.382-0.033c1.829-0.002,3.658-0.009,5.488,0.003c0.601,0.004,1.147,0.292,1.735,0.406
		c1.827,0.355,3.544,1.048,5.161,2.006c1.759,1.043,3.141,2.456,4.197,4.168c0.533,0.864,0.937,1.812,1.228,2.817
		c0.482,1.669,0.612,3.36,0.614,5.075c0.001,0.904-0.148,1.049-1.074,1.051C81.668,17.702,80.633,17.7,79.598,17.699z"/>
	<path d="M97.861,24.046c0,6.634,0,13.267,0,19.901c0,1.083-0.161,1.247-1.253,1.249c-2.014,0.003-4.028,0.003-6.042,0
		c-1.103-0.002-1.345-0.239-1.345-1.329c-0.001-13.156-0.001-26.313-0.001-39.469c0-0.074-0.001-0.148,0.002-0.222
		c0.04-1.057,0.196-1.212,1.252-1.213c2.106-0.002,4.213-0.004,6.319,0.001c0.904,0.002,1.066,0.168,1.066,1.071
		C97.861,10.705,97.861,17.376,97.861,24.046z"/>
	<path fill="#8989AD" d="M184.498,25.938c0.319,1.763-0.187,3.669-0.376,5.584c-0.102,1.036-0.37,2.093-0.67,3.124
		c-0.344,1.183-0.617,2.387-1.044,3.546c-0.408,1.105-0.806,2.212-1.284,3.293c-0.335,0.757-0.627,1.535-1.013,2.267
		c-0.329,0.624-0.876,0.851-1.419,0.645c-0.662-0.251-0.945-0.963-0.593-1.655c0.802-1.581,1.436-3.235,2.046-4.89
		c0.449-1.217,0.763-2.493,1.121-3.746c0.321-1.123,0.379-2.289,0.745-3.397c0.208-0.631,0.108-1.322,0.142-1.981
		c0.043-0.833,0.326-1.648,0.245-2.473c-0.179-1.826-0.227-3.66-0.636-5.472c-0.351-1.556-0.791-3.065-1.461-4.5
		c-0.885-1.895-1.992-3.645-3.401-5.214c-1.432-1.594-3.075-2.92-4.882-4.036c-1.043-0.644-2.172-1.143-3.308-1.63
		c-1.231-0.527-2.511-0.958-3.79-1.176c-2.404-0.41-4.828-0.828-7.311-0.327c-1.221,0.246-2.484,0.362-3.669,0.735
		c-1.539,0.485-3.057,1.058-4.464,1.89c-1.89,1.116-3.58,2.467-5.075,4.071c-0.313,0.336-0.56,0.724-0.945,1.006
		c-0.442,0.324-0.799,0.259-1.2-0.047c-0.412-0.315-0.601-0.691-0.442-1.202c0.178-0.571,0.627-0.953,1.007-1.371
		c1.629-1.787,3.501-3.286,5.609-4.462c1.606-0.895,3.296-1.597,5.078-2.115c2.401-0.699,4.837-0.974,7.315-0.912
		c1.304,0.032,2.603,0.136,3.9,0.403c1.372,0.283,2.728,0.611,4.042,1.07c0.933,0.326,1.84,0.743,2.729,1.202
		c1.333,0.687,2.592,1.466,3.788,2.365c1.291,0.97,2.435,2.091,3.496,3.297c1.161,1.32,2.123,2.788,2.938,4.34
		c0.657,1.252,1.199,2.555,1.626,3.916c0.281,0.898,0.568,1.807,0.708,2.715C184.303,22.436,184.648,24.075,184.498,25.938z"/>
	<path fill="#8989AD" d="M159.442,9.991c2.871-0.028,5.269,0.561,7.596,1.596c2.558,1.138,4.658,2.841,6.353,5.02
		c1.155,1.484,2.023,3.143,2.582,4.977c0.599,1.964,0.92,3.941,0.785,5.981c-0.087,1.324-0.354,2.626-0.67,3.914
		c-0.206,0.84-0.381,1.687-0.592,2.526c-0.184,0.735-0.428,1.451-0.661,2.163c-0.715,2.185-1.548,4.327-2.526,6.414
		c-0.75,1.598-1.545,3.169-2.395,4.714c-0.4,0.727-0.851,0.952-1.467,0.822c-0.717-0.151-1.037-1.039-0.604-1.793
		c0.752-1.311,1.481-2.638,2.102-4.011c0.567-1.253,1.13-2.51,1.627-3.798c0.411-1.064,0.81-2.133,1.142-3.219
		c0.219-0.716,0.433-1.445,0.652-2.161c0.325-1.063,0.542-2.151,0.719-3.228c0.256-1.563,0.701-3.129,0.309-4.762
		c-0.205-0.852-0.239-1.738-0.482-2.6c-0.451-1.604-1.204-3.037-2.141-4.391c-1.281-1.85-3.023-3.177-4.974-4.218
		c-0.898-0.479-1.899-0.769-2.871-1.105c-1.354-0.467-2.768-0.378-4.136-0.654c-0.588-0.119-1.165,0.129-1.753,0.179
		c-3.666,0.309-6.628,1.929-8.845,4.88c-0.601,0.8-0.988,1.725-1.485,2.585c-0.27,0.467-0.917,0.688-1.332,0.383
		c-0.69-0.506-0.928-0.838-0.642-1.452c0.914-1.964,2.125-3.708,3.756-5.148c1.171-1.033,2.48-1.832,3.926-2.428
		C155.452,10.335,157.559,9.915,159.442,9.991z"/>
	<path fill="#8989AD" d="M159.3,16.553c-2.644-0.215-4.819,0.818-6.586,2.726c-0.905,0.978-1.469,2.17-1.827,3.482
		c-0.459,1.68-0.501,3.425-0.905,5.102c-0.464,1.931-0.913,3.867-1.644,5.733c-0.587,1.496-1.221,2.958-2.026,4.346
		c-0.733,1.263-1.553,2.473-2.546,3.543c-0.879,0.946-1.772,1.887-2.791,2.688c-0.371,0.292-0.756,0.634-1.295,0.449
		c-0.88-0.302-1.136-1.259-0.453-1.89c1.086-1.003,2.198-1.985,3.166-3.098c1.128-1.297,2.005-2.775,2.763-4.32
		c0.624-1.272,1.178-2.576,1.557-3.941c0.285-1.026,0.588-2.046,0.823-3.09c0.312-1.385,0.544-2.787,0.733-4.182
		c0.176-1.302,0.618-2.494,1.055-3.695c0.336-0.923,0.976-1.69,1.585-2.455c1.332-1.673,3.087-2.747,5.103-3.341
		c1.486-0.438,3.041-0.676,4.596-0.463c0.724,0.099,1.45,0.264,2.169,0.425c0.576,0.129,1.068,0.836,0.971,1.316
		c-0.128,0.636-0.656,0.997-1.449,0.861C161.309,16.579,160.321,16.511,159.3,16.553z"/>
	<path fill="#8989AD" d="M134.52,34.299c-0.079-0.424,0.114-0.713,0.454-0.976c2.173-1.677,3.401-3.967,4.253-6.519
		c0.437-1.311,0.839-2.636,1.166-3.972c0.333-1.359,0.77-2.685,1.131-4.034c0.251-0.937,0.667-1.83,1.001-2.746
		c0.837-2.296,2.317-4.147,4.094-5.764c1.267-1.153,2.685-2.097,4.269-2.801c0.928-0.413,1.867-0.773,2.823-1.103
		c0.807-0.279,1.665-0.302,2.479-0.561c0.426-0.135,1.067,0.344,1.216,0.779c0.193,0.564-0.002,1.073-0.524,1.364
		c-0.21,0.117-0.423,0.235-0.67,0.249c-1.385,0.078-2.667,0.569-3.918,1.091c-1.08,0.451-2.093,1.059-3.039,1.771
		c-1.674,1.259-3.097,2.737-4.06,4.608c-0.462,0.896-0.808,1.849-1.153,2.801c-0.502,1.386-0.833,2.823-1.283,4.224
		c-0.185,0.576-0.33,1.175-0.449,1.759c-0.166,0.816-0.427,1.61-0.685,2.379c-0.788,2.341-1.742,4.615-3.431,6.504
		c-0.608,0.68-1.252,1.297-1.971,1.85c-0.351,0.27-0.707,0.413-1.123,0.198C134.666,35.174,134.442,34.816,134.52,34.299z"/>
	<path fill="#8989AD" d="M180.882,26.221c-0.146,1.945-0.329,3.882-0.683,5.809c-0.271,1.475-0.703,2.903-1.164,4.312
		c-0.477,1.458-0.975,2.925-1.67,4.307c-0.306,0.609-0.927,0.966-1.359,0.764c-0.701-0.328-1.001-1.067-0.697-1.745
		c0.7-1.561,1.218-3.187,1.778-4.801c0.633-1.824,1.008-3.703,1.256-5.596c0.198-1.509,0.231-3.043,0.14-4.583
		c-0.067-1.138-0.286-2.231-0.54-3.322c-0.313-1.346-0.823-2.629-1.502-3.842c-0.605-1.081-1.293-2.095-2.103-3.039
		c-0.84-0.978-1.848-1.749-2.866-2.508c-0.651-0.486-0.842-1.189-0.404-1.818c0.305-0.439,1.055-0.48,1.651-0.072
		c2.197,1.504,3.965,3.425,5.345,5.686c1.18,1.934,1.973,4.058,2.377,6.271C180.688,23.406,180.969,24.802,180.882,26.221z"/>
	<path fill="#8989AD" d="M159.66,20.769c-1.99-0.168-3.342,0.79-4.377,2.279c-0.297,0.427-0.529,0.927-0.62,1.466
		c-0.082,0.48-0.248,0.932-0.559,1.311c-0.284,0.347-0.628,0.589-1.109,0.395c-0.505-0.204-0.924-0.79-0.823-1.249
		c0.42-1.917,1.218-3.633,2.766-4.917c1.782-1.479,3.815-1.851,6.071-1.47c2.57,0.434,4.489,1.831,5.862,3.946
		c0.99,1.525,1.384,3.268,1.186,5.116c-0.173,1.612-0.538,3.183-0.878,4.765c-0.264,1.227-0.69,2.397-1.014,3.601
		c-0.125,0.466-0.768,0.871-1.2,0.808c-0.611-0.089-0.984-0.513-0.95-1.159c0.026-0.513,0.142-1.005,0.341-1.497
		c0.275-0.678,0.493-1.397,0.605-2.119c0.175-1.127,0.596-2.207,0.615-3.361c0.002-0.126,0.041-0.257,0.085-0.377
		c0.813-2.218-0.681-5.685-2.861-6.706C161.763,21.114,160.773,20.626,159.66,20.769z"/>
	<path fill="#8989AD" d="M160.991,25.069c-0.094-0.021-0.242-0.04-0.381-0.086c-1.146-0.374-1.714,0.109-2.237,1.211
		c-0.456,0.959-0.456,2.003-0.567,3.027c-0.224,2.069-0.606,4.099-1.196,6.105c-0.754,2.564-2.035,4.842-3.472,7.056
		c-0.415,0.639-1.104,0.861-1.665,0.539c-0.509-0.293-0.681-0.959-0.324-1.613c0.494-0.905,1.098-1.744,1.596-2.651
		c0.702-1.276,1.306-2.58,1.657-4.001c0.176-0.714,0.373-1.429,0.582-2.127c0.403-1.349,0.361-2.739,0.581-4.102
		c0.261-1.614,0.52-3.197,1.556-4.538c1.117-1.446,2.944-1.509,4.372-0.958c0.593,0.229,0.839,0.84,0.678,1.362
		C162.004,24.832,161.606,25.107,160.991,25.069z"/>
	<path fill="#8989AD" d="M137.692,39.622c-0.693,0.001-1.042-0.339-1.235-0.791c-0.196-0.459,0.002-0.866,0.397-1.163
		c0.118-0.088,0.238-0.184,0.372-0.237c1.776-0.687,2.856-2.088,3.756-3.665c1.045-1.831,1.807-3.778,2.391-5.805
		c0.367-1.274,0.745-2.539,0.948-3.854c0.055-0.354,0.243-0.697,0.416-1.021c0.221-0.414,0.764-0.547,1.33-0.371
		c0.5,0.155,0.796,0.53,0.704,1.044c-0.173,0.959-0.381,1.912-0.619,2.857c-0.232,0.925-0.494,1.844-0.788,2.751
		c-0.307,0.943-0.626,1.887-1.017,2.797c-0.514,1.198-1.074,2.376-1.795,3.472c-0.892,1.357-1.923,2.578-3.343,3.401
		C138.706,39.329,138.16,39.576,137.692,39.622z"/>
	<path fill="#8989AD" d="M140.37,12.779c0.88-0.01,1.414,0.804,1.007,1.581c-0.925,1.767-1.676,3.611-2.326,5.487
		c-0.633,1.825-1.308,3.632-2.074,5.403c-0.57,1.317-1.22,2.602-2.025,3.799c-0.224,0.334-0.368,0.711-0.676,1.002
		c-0.388,0.366-0.794,0.409-1.205,0.14c-0.417-0.273-0.705-0.664-0.601-1.21c0.034-0.178,0.094-0.37,0.2-0.513
		c0.582-0.792,0.971-1.692,1.438-2.546c0.537-0.982,0.974-2.014,1.379-3.057c0.413-1.061,0.85-2.114,1.213-3.193
		c0.323-0.961,0.666-1.913,1.052-2.847c0.518-1.256,0.967-2.552,1.817-3.642C139.831,12.846,139.991,12.783,140.37,12.779z"/>
	<path fill="#8989AD" d="M154.811,51.459c-0.005-0.285,0.022-0.539,0.189-0.758c0.959-1.262,1.927-2.519,2.874-3.79
		c0.925-1.241,1.77-2.536,2.554-3.873c0.885-1.509,1.704-3.05,2.402-4.656c0.254-0.586,0.896-0.806,1.436-0.567
		c0.529,0.234,0.824,0.859,0.613,1.426c-0.391,1.051-0.893,2.05-1.421,3.04c-1.086,2.034-2.303,3.985-3.659,5.848
		c-0.9,1.236-1.844,2.441-2.763,3.663c-0.146,0.195-0.325,0.347-0.509,0.503c-0.345,0.292-0.715,0.388-1.125,0.182
		C154.982,52.266,154.787,51.909,154.811,51.459z"/>
	<path fill="#8989AD" d="M159.8,51.787c-0.087-0.676,0.399-1.093,0.759-1.492c1.171-1.295,2.072-2.774,3.038-4.21
		c1.208-1.795,2.149-3.74,3.103-5.675c0.244-0.494,0.433-1.016,0.639-1.529c0.269-0.67,0.804-0.963,1.448-0.782
		c0.52,0.147,0.809,0.749,0.714,1.397c-0.094,0.638-0.457,1.166-0.705,1.732c-0.909,2.074-1.961,4.082-3.199,5.978
		c-1.006,1.541-1.987,3.109-3.26,4.461c-0.226,0.24-0.377,0.553-0.609,0.786c-0.352,0.354-0.776,0.6-1.294,0.374
		C159.989,52.633,159.73,52.294,159.8,51.787z"/>
	<path fill="#8989AD" d="M159.688,40.167c0.011,0.585-0.305,0.987-0.528,1.39c-1.93,3.492-4.34,6.624-7.218,9.391
		c-0.537,0.516-1.039,0.614-1.544,0.317c-0.674-0.397-0.806-1.177-0.246-1.722c1.578-1.534,3.053-3.161,4.362-4.93
		c1.008-1.362,1.982-2.751,2.684-4.309c0.167-0.37,0.414-0.7,0.734-0.96c0.323-0.262,0.688-0.398,1.073-0.161
		C159.389,39.422,159.731,39.712,159.688,40.167z"/>
	<path fill="#8989AD" d="M159.011,36.567c-0.092-0.744,0.423-1.348,0.653-2.036c0.437-1.306,0.883-2.607,1.263-3.933
		c0.405-1.411,0.439-2.831,0.426-4.271c-0.005-0.531,0.478-1.064,0.959-1.127c0.577-0.076,1.036,0.211,1.194,0.831
		c0.24,0.944,0.063,1.903,0.021,2.855c-0.074,1.657-0.636,3.206-1.109,4.766c-0.356,1.173-0.869,2.301-1.353,3.432
		c-0.158,0.37-0.451,0.682-0.901,0.744C159.407,37.931,159.006,37.504,159.011,36.567z"/>
	<path fill="#8989AD" d="M172.653,27.568c-0.11,1.46-0.305,3.097-0.793,4.692c-0.188,0.613-0.246,1.256-0.516,1.857
		c-0.238,0.53-0.627,0.637-1.115,0.598c-0.553-0.044-0.93-0.376-0.991-0.876c-0.029-0.235-0.072-0.517,0.026-0.71
		c0.391-0.771,0.434-1.634,0.649-2.445c0.329-1.24,0.464-2.538,0.393-3.831c-0.046-0.826-0.182-1.647-0.281-2.47
		c-0.08-0.67,0.198-1.104,0.805-1.248c0.56-0.133,1.189,0.219,1.329,0.807C172.428,25.07,172.651,26.207,172.653,27.568z"/>
	<path fill="#8989AD" d="M153.697,29.365c0.024,0.356-0.083,0.74-0.203,1.133c-0.29,0.948-0.387,1.94-0.66,2.9
		c-0.403,1.414-0.814,2.819-1.492,4.126c-0.298,0.575-0.824,0.749-1.29,0.53c-0.7-0.329-0.964-0.828-0.689-1.526
		c0.37-0.94,0.703-1.888,1.005-2.852c0.374-1.195,0.714-2.395,0.863-3.637c0.059-0.488,0.218-0.93,0.379-1.379
		c0.181-0.505,0.697-0.837,1.147-0.77c0.476,0.07,0.921,0.611,0.94,1.142C153.699,29.125,153.697,29.217,153.697,29.365z"/>
	<path fill="#8989AD" d="M142.388,46.36c-0.034-0.335,0.092-0.581,0.313-0.808c0.822-0.845,1.635-1.699,2.448-2.553
		c0.854-0.897,1.544-1.923,2.264-2.924c0.151-0.211,0.301-0.417,0.481-0.603c0.442-0.455,0.9-0.554,1.316-0.28
		c0.57,0.376,0.765,0.934,0.454,1.53c-0.583,1.116-1.382,2.088-2.19,3.043c-0.893,1.056-1.87,2.039-2.868,2.997
		c-0.185,0.178-0.39,0.338-0.598,0.488c-0.301,0.217-0.645,0.348-0.976,0.113C142.689,47.122,142.335,46.851,142.388,46.36z"/>
	<path fill="#8989AD" d="M159.905,6.852c0-0.78,0.305-1.102,1.029-1.159c0.557-0.044,1.11,0.023,1.651,0.125
		c2.026,0.381,4.024,0.863,5.903,1.75c0.644,0.304,0.966,0.903,0.761,1.469c-0.232,0.641-0.803,0.909-1.535,0.659
		c-0.66-0.225-1.287-0.553-1.953-0.758c-1.14-0.351-2.289-0.673-3.483-0.818c-0.526-0.064-1.053-0.14-1.576-0.268
		C160.09,7.703,159.882,7.359,159.905,6.852z"/>
	<path fill="#8989AD" d="M170.985,21.272c0.024,0.587-0.312,0.93-0.798,1.151c-0.436,0.198-0.734-0.099-1.029-0.346
		c-0.125-0.105-0.241-0.234-0.322-0.375c-0.809-1.401-1.937-2.493-3.272-3.382c-0.49-0.326-0.73-0.755-0.669-1.356
		c0.049-0.475,0.354-0.694,0.745-0.871c0.332-0.15,0.619-0.048,0.89,0.119c1.28,0.79,2.405,1.758,3.321,2.958
		c0.268,0.351,0.525,0.711,0.773,1.076C170.834,20.554,170.971,20.895,170.985,21.272z"/>
	<path fill="#8989AD" d="M145.928,48.639c-0.034-0.866,0.523-1.308,0.933-1.756c0.874-0.953,1.72-1.922,2.493-2.957
		c0.099-0.132,0.221-0.248,0.338-0.365c0.438-0.436,0.843-0.512,1.281-0.247c0.528,0.32,0.716,0.796,0.527,1.371
		c-0.231,0.703-0.774,1.211-1.207,1.769c-0.755,0.972-1.632,1.85-2.477,2.75c-0.36,0.383-0.816,0.475-1.32,0.279
		C146.045,49.307,145.919,48.95,145.928,48.639z"/>
</g>
<g>
	<path fill="#8989AD" d="M20.996,57.369v-1.695h3.575v3.992c-0.36,0.424-0.871,0.788-1.531,1.094s-1.324,0.458-1.989,0.458
		c-0.811,0-1.527-0.199-2.146-0.599c-0.62-0.398-1.111-0.995-1.473-1.791c-0.362-0.795-0.543-1.73-0.543-2.806
		c0-1.103,0.184-2.046,0.55-2.83s0.843-1.369,1.429-1.757s1.286-0.581,2.102-0.581c0.98,0,1.765,0.249,2.355,0.749
		c0.59,0.498,0.97,1.231,1.138,2.197l-1.641,0.376c-0.123-0.515-0.349-0.909-0.677-1.183s-0.72-0.41-1.176-0.41
		c-0.707,0-1.278,0.274-1.716,0.824c-0.438,0.549-0.656,1.386-0.656,2.512c0,1.208,0.237,2.126,0.711,2.755
		c0.406,0.542,0.955,0.813,1.647,0.813c0.324,0,0.66-0.076,1.008-0.229c0.349-0.151,0.66-0.359,0.933-0.623v-1.268H20.996z"/>
	<path fill="#8989AD" d="M33.519,61.047H31.72l-0.719-2.27h-3.29l-0.679,2.27h-1.764l3.2-10.021h1.757L33.519,61.047z
		 M30.467,57.082l-1.135-3.719l-1.113,3.719H30.467z"/>
	<path fill="#8989AD" d="M34.387,51.025h3.292c0.899,0,1.531,0.082,1.896,0.246c0.365,0.164,0.673,0.453,0.924,0.868
		s0.376,0.884,0.376,1.408c0,0.483-0.107,0.919-0.323,1.31c-0.215,0.389-0.494,0.678-0.837,0.864
		c0.487,0.173,0.868,0.47,1.144,0.889s0.413,0.93,0.413,1.531c0,0.729-0.175,1.346-0.526,1.849
		c-0.351,0.504-0.766,0.815-1.244,0.934c-0.333,0.082-1.105,0.123-2.317,0.123h-2.796V51.025z M36.042,52.693v2.317h1.094
		c0.656,0,1.062-0.012,1.217-0.034c0.283-0.046,0.503-0.165,0.663-0.359c0.16-0.193,0.239-0.456,0.239-0.789
		c0-0.296-0.065-0.537-0.195-0.721c-0.13-0.186-0.287-0.3-0.472-0.346s-0.714-0.068-1.589-0.068H36.042z M36.042,56.679v2.673h1.541
		c0.676,0,1.109-0.035,1.301-0.105s0.353-0.209,0.483-0.416c0.13-0.207,0.195-0.47,0.195-0.788c0-0.327-0.07-0.596-0.209-0.808
		c-0.139-0.211-0.324-0.356-0.555-0.437c-0.23-0.079-0.702-0.119-1.415-0.119H36.042z"/>
	<path fill="#8989AD" d="M42.625,61.047V51.025h1.654v10.021H42.625z"/>
	<path fill="#8989AD" d="M45.885,61.047V51.025h1.613l3.363,6.692v-6.692h1.545v10.021h-1.668l-3.309-6.535v6.535H45.885z"/>
	<path fill="#8989AD" d="M54.157,61.047V51.025h6.098v1.695h-4.443v2.222h4.129v1.688h-4.129v2.721h4.594v1.695H54.157z"/>
	<path fill="#8989AD" d="M63.659,61.047v-8.326h-2.44v-1.695h6.528v1.695h-2.434v8.326H63.659z"/>
	<path fill="#8989AD" d="M68.827,61.047V51.025h6.098v1.695h-4.443v2.222h4.129v1.688h-4.129v2.721h4.594v1.695H68.827z"/>
	<path fill="#8989AD" d="M79.662,51.025h3.025c0.765,0,1.342,0.086,1.731,0.256c0.389,0.172,0.748,0.46,1.076,0.865
		s0.585,0.932,0.771,1.579c0.187,0.647,0.28,1.451,0.28,2.413c0,0.866-0.098,1.619-0.294,2.26c-0.196,0.64-0.444,1.146-0.744,1.521
		s-0.664,0.655-1.089,0.845c-0.426,0.188-0.973,0.283-1.642,0.283h-3.114V51.025z M81.316,52.721v6.631h1.244
		c0.533,0,0.919-0.05,1.159-0.15c0.239-0.1,0.435-0.251,0.588-0.454c0.153-0.202,0.279-0.522,0.379-0.959
		c0.1-0.438,0.15-1.014,0.15-1.728c0-0.742-0.051-1.327-0.154-1.756c-0.103-0.428-0.262-0.765-0.479-1.011
		c-0.216-0.245-0.479-0.407-0.79-0.484c-0.232-0.06-0.681-0.089-1.347-0.089H81.316z"/>
	<path fill="#8989AD" d="M87.96,61.047V51.025h6.098v1.695h-4.443v2.222h4.129v1.688h-4.129v2.721h4.594v1.695H87.96z"/>
	<path fill="#8989AD" d="M16.75,72.779l1.62-0.191c0.182,1.28,0.779,1.921,1.791,1.921c0.501,0,0.896-0.131,1.183-0.393
		s0.431-0.587,0.431-0.974c0-0.229-0.05-0.422-0.15-0.581s-0.253-0.29-0.458-0.393s-0.702-0.274-1.49-0.516
		c-0.707-0.214-1.224-0.446-1.552-0.696c-0.328-0.251-0.589-0.58-0.783-0.987s-0.291-0.846-0.291-1.314
		c0-0.547,0.124-1.038,0.373-1.476s0.591-0.768,1.029-0.99c0.438-0.224,0.978-0.335,1.62-0.335c0.966,0,1.72,0.262,2.263,0.786
		s0.83,1.273,0.861,2.249l-1.661,0.089c-0.073-0.538-0.23-0.914-0.472-1.128s-0.585-0.321-1.032-0.321S19.241,67.622,19,67.809
		s-0.362,0.418-0.362,0.695c0,0.272,0.109,0.502,0.329,0.688c0.219,0.187,0.723,0.391,1.511,0.614
		c0.833,0.242,1.436,0.496,1.807,0.763s0.655,0.61,0.851,1.031c0.196,0.422,0.294,0.934,0.294,1.535c0,0.87-0.268,1.602-0.803,2.193
		c-0.536,0.593-1.373,0.889-2.512,0.889C18.1,76.218,16.979,75.071,16.75,72.779z"/>
	<path fill="#8989AD" d="M24.831,76.047V66.025h6.098v1.695h-4.443v2.222h4.129v1.688h-4.129v2.721h4.594v1.695H24.831z"/>
	<path fill="#8989AD" d="M36.308,72.369v-1.695h3.575v3.992c-0.36,0.424-0.871,0.788-1.531,1.094s-1.324,0.458-1.989,0.458
		c-0.811,0-1.527-0.199-2.146-0.599c-0.62-0.398-1.111-0.995-1.473-1.791c-0.362-0.795-0.543-1.73-0.543-2.806
		c0-1.103,0.184-2.046,0.55-2.83s0.843-1.369,1.429-1.757s1.286-0.581,2.102-0.581c0.98,0,1.765,0.249,2.355,0.749
		c0.59,0.498,0.97,1.231,1.138,2.197l-1.641,0.376c-0.123-0.515-0.349-0.909-0.677-1.183s-0.72-0.41-1.176-0.41
		c-0.707,0-1.278,0.274-1.716,0.824c-0.438,0.549-0.656,1.386-0.656,2.512c0,1.208,0.237,2.126,0.711,2.755
		c0.406,0.542,0.955,0.813,1.647,0.813c0.324,0,0.66-0.076,1.008-0.229c0.349-0.151,0.66-0.359,0.933-0.623v-1.268H36.308z"/>
	<path fill="#8989AD" d="M41.401,66.025h1.654v5.428c0,0.843,0.021,1.393,0.062,1.647c0.073,0.442,0.248,0.784,0.524,1.025
		c0.276,0.241,0.641,0.362,1.093,0.362c0.384,0,0.696-0.086,0.938-0.256c0.242-0.172,0.408-0.408,0.497-0.711
		c0.089-0.304,0.134-0.954,0.134-1.952v-5.544h1.654v5.264c0,1.345-0.072,2.316-0.215,2.916c-0.144,0.599-0.467,1.084-0.971,1.455
		c-0.503,0.372-1.168,0.558-1.993,0.558c-0.857,0-1.525-0.153-2.006-0.462c-0.481-0.307-0.83-0.74-1.046-1.299
		c-0.216-0.558-0.325-1.587-0.325-3.086V66.025z"/>
	<path fill="#8989AD" d="M49.707,76.047V66.025H53.2c0.893,0,1.531,0.09,1.914,0.27c0.383,0.181,0.697,0.492,0.943,0.938
		c0.246,0.443,0.369,0.976,0.369,1.596c0,0.784-0.188,1.415-0.564,1.894s-0.91,0.779-1.603,0.902
		c0.355,0.255,0.649,0.534,0.882,0.837c0.232,0.304,0.549,0.847,0.95,1.631l0.998,1.955H55.11l-1.201-2.181
		c-0.432-0.788-0.726-1.282-0.88-1.479c-0.155-0.199-0.319-0.336-0.492-0.41c-0.173-0.076-0.451-0.113-0.834-0.113h-0.342v4.184
		H49.707z M51.361,70.264h1.23c0.752,0,1.23-0.033,1.436-0.1c0.205-0.065,0.372-0.199,0.499-0.399s0.191-0.467,0.191-0.8
		c0-0.319-0.064-0.575-0.191-0.77c-0.127-0.193-0.301-0.326-0.52-0.399c-0.155-0.05-0.604-0.075-1.347-0.075h-1.299V70.264z"/>
	<path fill="#8989AD" d="M65.402,76.047h-1.799l-0.719-2.27h-3.29l-0.679,2.27h-1.764l3.2-10.021h1.757L65.402,76.047z
		 M62.35,72.082l-1.135-3.719l-1.113,3.719H62.35z"/>
	<path fill="#8989AD" d="M66.291,76.047V66.025h1.613l3.363,6.692v-6.692h1.545v10.021h-1.668l-3.309-6.535v6.535H66.291z"/>
	<path fill="#8989AD" d="M79.819,72.362l1.606,0.622c-0.25,1.121-0.667,1.94-1.251,2.457c-0.583,0.518-1.301,0.776-2.153,0.776
		c-1.071,0-1.939-0.412-2.604-1.237c-0.766-0.952-1.148-2.237-1.148-3.855c0-1.709,0.385-3.047,1.156-4.013
		c0.671-0.839,1.572-1.258,2.703-1.258c0.921,0,1.692,0.314,2.313,0.943c0.442,0.446,0.767,1.109,0.972,1.989l-1.641,0.479
		c-0.105-0.542-0.314-0.958-0.626-1.248c-0.313-0.289-0.682-0.434-1.106-0.434c-0.607,0-1.103,0.265-1.486,0.793
		s-0.575,1.401-0.575,2.618c0,1.263,0.187,2.16,0.561,2.693s0.859,0.8,1.456,0.8c0.438,0,0.816-0.17,1.135-0.51
		C79.447,73.64,79.678,73.101,79.819,72.362z M76.367,78.891v-0.807c0.383,0.05,0.736,0.075,1.06,0.075
		c0.31,0,0.542-0.061,0.697-0.181c0.155-0.121,0.232-0.275,0.232-0.462c0-0.169-0.063-0.307-0.188-0.413
		c-0.125-0.107-0.302-0.161-0.53-0.161c-0.237,0-0.481,0.046-0.731,0.137l0.144-0.684c0.292-0.123,0.611-0.185,0.957-0.185
		c0.428,0,0.771,0.12,1.029,0.359c0.257,0.24,0.386,0.552,0.386,0.936c0,0.438-0.171,0.798-0.513,1.076S78.085,79,77.46,79
		C76.978,79,76.613,78.964,76.367,78.891z"/>
	<path fill="#8989AD" d="M90.257,76.047h-1.799l-0.719-2.27h-3.29l-0.679,2.27h-1.764l3.2-10.021h1.757L90.257,76.047z
		 M87.205,72.082l-1.135-3.719l-1.113,3.719H87.205z"/>
	<path fill="#8989AD" d="M93.908,76.047V66.025h6.098v1.695h-4.443v2.222h4.129v1.688h-4.129v2.721h4.594v1.695H93.908z"/>
	<path fill="#8989AD" d="M104.702,76.047V66.025h1.654v10.021H104.702z"/>
	<path fill="#8989AD" d="M107.962,76.047V66.025h1.613l3.363,6.692v-6.692h1.545v10.021h-1.668l-3.309-6.535v6.535H107.962z"/>
	<path fill="#8989AD" d="M118.079,76.047v-8.326h-2.44v-1.695h6.528v1.695h-2.434v8.326H118.079z"/>
	<path fill="#8989AD" d="M123.247,76.047V66.025h6.098v1.695h-4.443v2.222h4.129v1.688h-4.129v2.721h4.594v1.695H123.247z"/>
	<path fill="#8989AD" d="M130.944,76.047v-9.939h1.654v8.244h4.129v1.695H130.944z"/>
	<path fill="#8989AD" d="M137.862,76.047V66.025h1.654v10.021H137.862z"/>
	<path fill="#8989AD" d="M144.932,72.369v-1.695h3.575v3.992c-0.36,0.424-0.87,0.788-1.531,1.094s-1.324,0.458-1.989,0.458
		c-0.812,0-1.526-0.199-2.146-0.599c-0.62-0.398-1.111-0.995-1.473-1.791c-0.363-0.795-0.544-1.73-0.544-2.806
		c0-1.103,0.184-2.046,0.55-2.83c0.367-0.784,0.844-1.369,1.43-1.757c0.585-0.388,1.286-0.581,2.102-0.581
		c0.979,0,1.765,0.249,2.355,0.749c0.59,0.498,0.969,1.231,1.138,2.197l-1.641,0.376c-0.123-0.515-0.349-0.909-0.677-1.183
		s-0.72-0.41-1.176-0.41c-0.706,0-1.278,0.274-1.716,0.824c-0.438,0.549-0.656,1.386-0.656,2.512c0,1.208,0.237,2.126,0.711,2.755
		c0.405,0.542,0.955,0.813,1.647,0.813c0.323,0,0.66-0.076,1.008-0.229c0.35-0.151,0.66-0.359,0.934-0.623v-1.268H144.932z"/>
	<path fill="#8989AD" d="M150.044,76.047V66.025h6.098v1.695h-4.443v2.222h4.129v1.688h-4.129v2.721h4.594v1.695H150.044z
		 M151.145,65.335l1.178-2.017h1.459l1.164,2.017h-1.265l-0.653-1.019l-0.604,1.019H151.145z"/>
	<path fill="#8989AD" d="M157.714,76.047V66.025h1.613l3.363,6.692v-6.692h1.545v10.021h-1.668l-3.309-6.535v6.535H157.714z"/>
	<path fill="#8989AD" d="M171.242,72.362l1.606,0.622c-0.251,1.121-0.668,1.94-1.251,2.457c-0.583,0.518-1.301,0.776-2.153,0.776
		c-1.071,0-1.939-0.412-2.604-1.237c-0.766-0.952-1.148-2.237-1.148-3.855c0-1.709,0.386-3.047,1.156-4.013
		c0.671-0.839,1.571-1.258,2.703-1.258c0.921,0,1.692,0.314,2.313,0.943c0.442,0.446,0.767,1.109,0.972,1.989l-1.641,0.479
		c-0.105-0.542-0.313-0.958-0.627-1.248c-0.313-0.289-0.681-0.434-1.105-0.434c-0.607,0-1.103,0.265-1.486,0.793
		s-0.575,1.401-0.575,2.618c0,1.263,0.187,2.16,0.561,2.693s0.859,0.8,1.456,0.8c0.438,0,0.815-0.17,1.135-0.51
		C170.871,73.64,171.101,73.101,171.242,72.362z"/>
	<path fill="#8989AD" d="M174.216,76.047V66.025h1.654v10.021H174.216z"/>
	<path fill="#8989AD" d="M184.874,76.047h-1.799l-0.72-2.27h-3.289l-0.68,2.27h-1.764l3.2-10.021h1.757L184.874,76.047z
		 M181.821,72.082l-1.134-3.719l-1.114,3.719H181.821z"/>
</g>
</svg>
