<?xml version="1.0" encoding="utf-8"?>
<!-- Generator: Adobe Illustrator 17.0.0, SVG Export Plug-In . SVG Version: 6.00 Build 0)  -->
<!DOCTYPE svg PUBLIC "-//W3C//DTD SVG 1.1//EN" "http://www.w3.org/Graphics/SVG/1.1/DTD/svg11.dtd">
<svg version="1.1" id="Camada_1" xmlns="http://www.w3.org/2000/svg" xmlns:xlink="http://www.w3.org/1999/xlink" x="0px" y="0px"
	 width="200px" height="80px" viewBox="0 0 200 80" enable-background="new 0 0 200 80" xml:space="preserve">
<g>
	<path fill="#181818" d="M78.337,19.623c-0.239,0.109-0.282,0.33-0.376,0.51c-1.498,2.852-2.995,5.704-4.488,8.559
		c-1.374,2.628-2.738,5.262-4.114,7.889c-0.871,1.663-1.772,3.31-2.626,4.982c-0.364,0.712-0.921,1.018-1.68,0.995
		c-0.718-0.022-1.194-0.42-1.525-1.041C60.232,35.342,56.932,29.17,53.629,23c-0.348-0.65-0.741-1.277-1.019-1.989
		c-0.308,0.146-0.206,0.383-0.207,0.561c-0.01,2.134-0.01,4.268-0.01,6.401c0,4.616,0.002,9.232,0.003,13.847
		c0,0.139,0,0.278-0.001,0.417c-0.003,0.303-0.103,0.442-0.458,0.437c-1.901-0.026-3.803-0.016-5.705-0.026
		c-0.577-0.003-0.627-0.069-0.626-0.648c0.008-5.822,0.017-11.643,0.021-17.465c0.003-4.569,0.047-9.139-0.017-13.707
		c-0.043-3.115,3.196-5.371,6.224-3.933c0.819,0.389,1.443,1.01,1.867,1.811c1.507,2.847,2.998,5.703,4.509,8.548
		c2.358,4.442,4.728,8.877,7.091,13.316c0.566,1.064,1.126,2.131,1.689,3.196c0.054,0.102,0.095,0.214,0.164,0.306
		c0.167,0.225,0.336,0.221,0.476-0.027c0.32-0.564,0.63-1.134,0.934-1.707c1.492-2.802,2.981-5.606,4.473-8.408
		c1.721-3.232,3.443-6.464,5.167-9.694c1.19-2.228,2.381-4.455,3.579-6.679c0.364-0.675,0.889-1.13,1.709-1.098
		c0.737,0.029,1.273,0.38,1.599,1.045c0.169,0.345,0.166,0.721,0.182,1.089c0.019,0.463-0.003,0.927-0.003,1.391
		c-0.001,10.438-0.001,20.875,0,31.313c0,0.301,0.013,0.603,0.008,0.904c-0.005,0.308-0.158,0.463-0.48,0.453
		c-0.371-0.012-0.742-0.009-1.113-0.008c-1.484,0.005-2.968,0.012-4.453,0.018c-0.783,0.003-0.78-0.019-0.777-0.836
		c0.011-3.34,0.007-6.68,0.009-10.02c0.002-3.873,0.004-7.747,0.004-11.62C78.468,20.01,78.519,19.817,78.337,19.623z"/>
	<path fill="#181818" d="M125.057,21.102c-0.169,0.122-0.11,0.293-0.11,0.442c0.004,6.47,0.011,12.941,0.018,19.411
		c0,0.301,0.022,0.603,0.018,0.904c-0.006,0.425-0.107,0.537-0.532,0.549c-0.533,0.015-1.067,0.002-1.6,0.002
		c-1.321-0.002-2.643-0.001-3.964-0.005c-0.617-0.002-0.659-0.061-0.657-0.679c0.006-2.134,0.005-4.267,0.004-6.401
		c-0.001-8.187-0.004-16.374-0.003-24.56c0-2.788,2.655-4.804,5.354-4.093c1.195,0.315,2.082,1.028,2.653,2.086
		c1.551,2.875,3.06,5.773,4.587,8.662c1.635,3.093,3.271,6.186,4.908,9.278c1.258,2.374,2.519,4.747,3.781,7.119
		c0.064,0.12,0.125,0.252,0.309,0.314c0.265-0.123,0.28-0.436,0.402-0.664c1.9-3.53,3.787-7.068,5.684-10.6
		c1.271-2.367,2.561-4.723,3.831-7.091c1.413-2.634,2.813-5.275,4.221-7.911c0.141-0.265,0.267-0.555,0.469-0.766
		c0.482-0.503,1.078-0.706,1.775-0.503c0.684,0.199,1.121,0.644,1.256,1.344c0.065,0.339,0.079,0.692,0.079,1.038
		c0.001,10.9-0.002,21.8-0.004,32.701c0,0.661-0.051,0.727-0.699,0.729c-1.809,0.005-3.617,0.003-5.426-0.003
		c-0.564-0.002-0.626-0.076-0.626-0.652c-0.002-6.911-0.005-13.822-0.006-20.733c0-0.324,0.021-0.649,0.012-0.973
		c-0.004-0.15,0.032-0.333-0.154-0.424c-0.175,0.012-0.213,0.163-0.272,0.277c-1.45,2.771-2.894,5.545-4.344,8.317
		c-1.353,2.587-2.712,5.171-4.068,7.756c-0.947,1.805-1.894,3.611-2.841,5.416c-0.615,1.173-2.245,1.267-2.973,0.142
		c-0.402-0.62-0.719-1.296-1.069-1.949c-2.579-4.822-5.157-9.645-7.736-14.467c-0.645-1.205-1.291-2.41-1.944-3.611
		C125.311,21.355,125.276,21.15,125.057,21.102z"/>
	<path fill="#181818" d="M195.971,33.726c0,2.203-0.001,4.407,0.001,6.61c0,0.503-0.045,0.573-0.558,0.716
		c-1.988,0.555-3.997,1.018-6.024,1.406c-2.929,0.561-5.883,0.771-8.861,0.658c-3.476-0.133-6.802-0.893-9.9-2.495
		c-2.66-1.376-4.903-3.256-6.529-5.8c-1.625-2.542-2.422-5.349-2.514-8.355c-0.089-2.9,0.244-5.743,1.265-8.478
		c1.766-4.732,5.018-8.034,9.642-10.026c2.213-0.953,4.519-1.494,6.904-1.799c1.99-0.255,3.977-0.316,5.968-0.157
		c3.22,0.256,6.303,1.048,9.192,2.526c0.041,0.021,0.083,0.042,0.125,0.061c0.997,0.447,1.035,0.364,0.598,1.486
		c-0.479,1.23-1.016,2.438-1.538,3.651c-0.275,0.639-0.401,0.649-0.812,0.125c-2.13-2.718-4.903-4.24-8.355-4.542
		c-2.318-0.202-4.532,0.111-6.622,1.162c-2.552,1.284-4.429,3.24-5.75,5.757c-0.993,1.893-1.535,3.916-1.836,6.021
		c-0.308,2.154-0.305,4.304,0.043,6.445c0.508,3.121,1.708,5.926,4.061,8.119c1.76,1.64,3.86,2.592,6.263,2.913
		c1.768,0.236,3.512,0.153,5.263-0.115c0.894-0.137,1.788-0.269,2.668-0.481c0.791-0.19,0.805-0.224,0.811-1.009
		c0.019-2.667,0.09-5.334,0.057-8c-0.022-1.733,1.488-3.714,3.656-3.712c0.765,0.001,1.531-0.015,2.295,0.013
		c0.455,0.017,0.506,0.111,0.506,0.551c-0.001,2.25-0.001,4.499-0.001,6.749C195.982,33.726,195.976,33.726,195.971,33.726z"/>
	<path fill="#E31214" d="M40.143,42.172c-0.542-0.358-0.784-0.765-1.084-1.109c-1.083-1.241-2.399-2.169-3.83-2.958
		c-2.484-1.37-5.161-2.007-7.976-2.176c-2.893-0.173-5.745,0.081-8.557,0.754c-2.417,0.579-4.746,1.424-6.997,2.478
		c-1.552,0.726-3.021,1.598-4.478,2.503c-1.302,0.808-2.489,1.764-3.744,2.631c-0.122,0.084-0.23,0.145-0.326,0.14
		C15.433,32.168,27.736,19.877,40.05,7.576c0.219,0.292,0.169,0.598,0.169,0.892c-0.001,5.473-0.005,10.946-0.006,16.419
		c-0.001,5.102,0.003,10.204-0.002,15.305C40.211,40.809,40.17,41.426,40.143,42.172z"/>
	<path fill="#181818" d="M90.203,25.882c0-5.289,0.016-10.578-0.01-15.867c-0.008-1.536,1.182-3.337,3.211-3.357
		c3.757-0.036,7.516-0.126,11.271,0.054c1.849,0.089,3.594,0.595,5.181,1.627c2.31,1.503,3.615,3.583,3.903,6.324
		c0.185,1.759,0.037,3.476-0.573,5.137c-1.012,2.753-2.965,4.599-5.64,5.713c-2.266,0.944-4.656,1.201-7.083,1.229
		c-0.069,0.001-0.139-0.007-0.208-0.012c-0.618-0.051-0.672-0.114-0.657-0.712c0.011-0.44,0.012-0.88,0.012-1.321
		c-0.001-0.55,0.054-0.625,0.638-0.652c0.959-0.045,1.892-0.205,2.765-0.616c1.349-0.634,2.366-1.625,3.016-2.964
		c1.122-2.315,1.306-4.705,0.522-7.167c-0.813-2.553-2.873-3.966-5.482-4.011c-1.184-0.021-2.364,0.067-3.546,0.125
		c-0.368,0.018-0.486,0.171-0.48,0.512c0.013,0.742,0.014,1.484,0.013,2.227c-0.006,9.928-0.013,19.857-0.02,29.785
		c0,0.697-0.02,0.72-0.679,0.721c-1.879,0.001-3.758,0.001-5.636-0.003c-0.504-0.001-0.56-0.059-0.561-0.556
		c-0.001-5.405-0.001-10.81-0.001-16.214C90.172,25.882,90.188,25.882,90.203,25.882z"/>
	<path fill="#181818" d="M52.531,57.635c0.311-0.157,0.347-0.403,0.436-0.606c1.118-2.546,2.243-5.09,3.333-7.648
		c0.206-0.483,0.467-0.674,0.985-0.627c0.483,0.044,0.973-0.003,1.46,0.005c0.625,0.011,0.657,0.05,0.657,0.68
		c-0.002,3.456-0.005,6.912-0.006,10.368c0,0.301,0.02,0.603,0.014,0.904c-0.009,0.428-0.099,0.534-0.532,0.552
		c-0.463,0.019-0.927,0.01-1.391-0.004c-0.532-0.015-0.598-0.083-0.598-0.612c-0.001-1.6,0.011-3.201,0.006-4.801
		c-0.004-1.111-0.038-2.222,0.054-3.355c-0.316,0.021-0.334,0.272-0.399,0.435c-1.065,2.644-2.3,5.215-3.386,7.85
		c-0.162,0.393-0.429,0.495-0.815,0.493c-0.395-0.003-0.651-0.147-0.807-0.523c-0.755-1.819-1.519-3.634-2.289-5.447
		c-0.344-0.81-0.749-1.596-0.988-2.449c-0.029-0.103-0.081-0.221-0.236-0.223c-0.178,0.098-0.113,0.27-0.105,0.417
		c0.123,2.527,0.039,5.055,0.052,7.583c0.003,0.553-0.111,0.641-0.658,0.643c-0.255,0.001-0.509-0.005-0.764-0.006
		c-0.594-0.002-0.687-0.094-0.686-0.677c0.003-1.554,0.006-3.108,0.007-4.662c0.002-2.18,0.002-4.361,0.002-6.541
		c0-0.607,0.002-0.612,0.619-0.621c0.557-0.008,1.115,0.019,1.67-0.014c0.499-0.03,0.737,0.189,0.92,0.64
		c0.892,2.188,1.817,4.363,2.73,6.542C52.046,56.484,52.279,57.036,52.531,57.635z"/>
	<path fill="#181818" d="M160.125,60.236c-0.071,0.127-0.124,0.18-0.13,0.238c-0.078,0.798-0.077,0.798-0.836,0.791
		c-0.371-0.003-0.742-0.018-1.113-0.008c-0.337,0.009-0.454-0.157-0.441-0.469c0.012-0.278,0.016-0.556,0.016-0.834
		c0.002-3.618,0.003-7.235,0.001-10.853c0-1.108-0.02-0.995,0.968-0.975c0.278,0.006,0.556,0.002,0.834-0.006
		c0.521-0.015,0.544-0.012,0.55,0.529c0.015,1.321,0.011,2.643,0.015,3.964c0.001,0.222-0.062,0.455,0.142,0.72
		c0.366-0.357,0.732-0.656,1.16-0.877c1.478-0.766,3.97-0.447,5.049,1.568c0.874,1.632,0.881,4.565-0.847,6.278
		c-1.173,1.162-3.065,1.499-4.425,0.758C160.704,60.861,160.42,60.568,160.125,60.236z M164.336,56.594
		c0.021-0.591-0.081-1.159-0.294-1.704c-0.303-0.777-0.876-1.287-1.703-1.342c-0.795-0.053-1.419,0.343-1.819,1.058
		c-0.65,1.162-0.651,2.388-0.357,3.639c0.086,0.365,0.271,0.691,0.495,0.989c0.635,0.846,2.072,1.115,2.888,0.097
		C164.197,58.519,164.342,57.582,164.336,56.594z"/>
	<path fill="#181818" d="M136.157,54.98c0-1.877-0.001-3.753,0-5.63c0-0.57,0.011-0.592,0.579-0.586
		c1.552,0.017,3.109-0.093,4.654,0.058c1.403,0.137,2.558,0.781,3.069,2.156c0.561,1.51,0.167,3.114-1.013,4.205
		c-0.985,0.911-2.191,1.264-3.5,1.32c-0.439,0.019-0.523-0.085-0.524-0.524c-0.002-0.94-0.016-1.009,0.926-1.192
		c1.54-0.299,2.047-1.907,1.559-3.218c-0.226-0.606-0.715-0.903-1.318-0.998c-0.455-0.072-0.922-0.087-1.384-0.096
		c-0.454-0.008-0.507,0.048-0.512,0.525c-0.01,1.066-0.004,2.132-0.003,3.197c0.002,2.15,0.007,4.3,0.006,6.45
		c0,0.515-0.087,0.603-0.608,0.614c-0.463,0.01-0.927,0.007-1.39-0.011c-0.511-0.02-0.553-0.067-0.553-0.572
		c0-0.95,0.01-1.9,0.012-2.85c0.002-0.95,0.001-1.9,0.001-2.85C136.158,54.98,136.157,54.98,136.157,54.98z"/>
	<path fill="#181818" d="M152.378,60.381c-0.188-0.06-0.287,0.095-0.407,0.192c-1.074,0.862-2.28,1.076-3.597,0.726
		c-1.053-0.279-1.648-0.974-1.831-2.039c-0.158-0.918-0.159-1.847-0.17-2.773c-0.014-1.182-0.005-2.365-0.004-3.547
		c0.001-0.596,0.047-0.648,0.615-0.66c0.417-0.008,0.835-0.009,1.252-0.002c0.529,0.01,0.598,0.073,0.602,0.607
		c0.008,1.275-0.001,2.551,0.006,3.826c0.003,0.509-0.003,1.022,0.051,1.527c0.091,0.857,0.54,1.395,1.197,1.512
		c0.915,0.162,1.73-0.205,2.13-0.959c0.19-0.358,0.245-0.742,0.246-1.142c0.003-1.553,0.01-3.107,0.021-4.66
		c0.005-0.699,0.011-0.7,0.694-0.708c0.394-0.005,0.788-0.009,1.182-0.004c0.431,0.006,0.527,0.097,0.566,0.519
		c0.009,0.092-0.001,0.185-0.001,0.278c0.001,2.481,0.001,4.962,0.003,7.443c0.001,0.667-0.051,0.729-0.69,0.742
		c-0.371,0.007-0.742,0.005-1.112-0.004c-0.575-0.013-0.596-0.038-0.651-0.626c-0.006-0.067-0.03-0.133-0.051-0.198
		C152.424,60.413,152.4,60.401,152.378,60.381z"/>
	<path fill="#181818" d="M67.474,56.705c0-1.252-0.002-2.504,0.001-3.756c0.001-0.624,0.041-0.664,0.675-0.67
		c0.417-0.004,0.834-0.001,1.251,0.009c0.313,0.007,0.511,0.099,0.509,0.491c-0.002,0.396,0.126,0.453,0.447,0.199
		c0.927-0.733,1.974-0.977,3.131-0.87c1.254,0.115,2.168,0.92,2.387,2.155c0.069,0.386,0.106,0.783,0.109,1.175
		c0.013,1.692,0.011,3.385,0.008,5.077c-0.001,0.698-0.038,0.728-0.754,0.739c-0.347,0.005-0.695,0.011-1.042,0.001
		c-0.529-0.015-0.599-0.082-0.601-0.608c-0.005-1.484,0.003-2.968-0.006-4.451c-0.002-0.37-0.021-0.743-0.075-1.108
		c-0.125-0.844-0.597-1.257-1.449-1.307c-1.266-0.074-1.883,0.433-2.091,1.701c-0.068,0.417-0.042,0.833-0.044,1.249
		c-0.005,1.252-0.002,2.504-0.002,3.756c0,0.742-0.028,0.771-0.792,0.774c-0.348,0.001-0.695,0.001-1.043-0.007
		c-0.572-0.013-0.613-0.058-0.614-0.656c-0.001-1.298,0-2.597,0-3.895C67.477,56.705,67.475,56.705,67.474,56.705z"/>
	<path fill="#181818" d="M131.262,68.215c-0.256,0.054-0.25,0.238-0.302,0.381c-0.596,1.661-1.4,3.232-2.093,4.851
		c-0.092,0.214-0.192,0.421-0.466,0.467c-0.369,0.061-0.588-0.05-0.753-0.441c-0.676-1.601-1.345-3.206-2.021-4.807
		c-0.068-0.16-0.063-0.369-0.262-0.454c-0.207,0.045-0.154,0.209-0.144,0.33c0.128,1.552-0.013,3.107,0.051,4.66
		c0.01,0.251,0.049,0.562-0.236,0.673c-0.323,0.126-0.689,0.126-1.011-0.023c-0.22-0.102-0.183-0.353-0.182-0.561
		c0.003-0.603,0.011-1.206,0.011-1.809c0.001-1.832-0.003-3.665-0.002-5.497c0-0.663,0.007-0.666,0.652-0.65
		c0.116,0.003,0.232,0.005,0.348,0.005c1.003-0.002,0.992,0.003,1.386,0.958c0.636,1.543,1.289,3.079,1.932,4.618
		c0.055,0.131,0.104,0.284,0.256,0.296c0.204,0.016,0.246-0.174,0.31-0.32c0.741-1.699,1.495-3.393,2.212-5.102
		c0.142-0.339,0.316-0.472,0.666-0.457c0.347,0.015,0.696,0.003,1.043-0.01c0.332-0.012,0.451,0.149,0.448,0.466
		c-0.009,0.765-0.003,1.53-0.004,2.295c-0.001,1.67,0,3.34-0.002,5.01c-0.001,0.798-0.044,0.84-0.811,0.819
		c-0.945-0.025-0.926-0.025-0.919-0.965c0.01-1.46-0.009-2.921-0.017-4.382C131.352,68.45,131.356,68.333,131.262,68.215z"/>
	<path fill="#181818" d="M196.845,56.673c0.045,2.789-1.868,4.791-4.659,4.777c-2.685-0.014-4.617-1.835-4.665-4.646
		c-0.049-2.836,2.002-4.688,4.638-4.733C194.96,52.022,196.941,54.258,196.845,56.673z M194.34,56.743
		c-0.027-0.866-0.087-1.58-0.447-2.227c-0.394-0.708-0.986-1.083-1.809-1.056c-0.779,0.025-1.493,0.607-1.786,1.514
		c-0.428,1.325-0.382,2.647,0.163,3.931c0.306,0.721,0.878,1.126,1.67,1.156c0.826,0.03,1.401-0.375,1.777-1.097
		C194.297,58.217,194.289,57.403,194.34,56.743z"/>
	<path fill="#181818" d="M129.315,56.659c0.116,2.659-1.859,4.755-4.499,4.798c-2.789,0.046-4.764-1.873-4.824-4.639
		c-0.057-2.637,1.832-4.803,4.908-4.738C127.323,52.131,129.404,54.118,129.315,56.659z M126.838,56.537
		c0.021-0.53-0.099-1.26-0.437-1.931c-0.329-0.652-0.839-1.101-1.61-1.152c-0.807-0.053-1.356,0.349-1.762,1.008
		c-0.39,0.633-0.505,1.346-0.523,2.06c-0.026,1.024,0.06,2.04,0.763,2.882c0.773,0.927,2.143,0.882,2.869-0.083
		C126.712,58.556,126.805,57.669,126.838,56.537z"/>
	<path fill="#181818" d="M103.204,56.995c-0.764,0-1.529-0.012-2.293,0.005c-0.473,0.01-0.513,0.082-0.441,0.547
		c0.234,1.495,1.382,2.414,2.895,2.302c0.583-0.043,1.149-0.182,1.65-0.492c0.321-0.199,0.474-0.112,0.653,0.193
		c0.493,0.836,0.485,0.923-0.402,1.308c-1.056,0.459-2.149,0.684-3.314,0.562c-2.274-0.237-3.895-2.227-4.028-4.057
		c-0.082-1.133,0.006-2.208,0.596-3.22c1.365-2.343,4.664-2.528,6.155-1.422c0.837,0.621,1.205,1.501,1.412,2.471
		c0.072,0.338,0.105,0.687,0.133,1.033c0.043,0.528-0.123,0.736-0.653,0.752c-0.787,0.023-1.575,0.006-2.362,0.006
		C103.204,56.987,103.204,56.991,103.204,56.995z M102.227,55.741c0,0.006,0,0.012,0,0.018c0.162,0,0.323,0,0.485,0
		c0.185,0.001,0.369,0.003,0.554,0.003c0.759-0.001,0.86-0.113,0.708-0.84c-0.052-0.246-0.135-0.491-0.24-0.719
		c-0.161-0.349-0.434-0.631-0.807-0.702c-1.034-0.198-1.869-0.053-2.308,1.183c-0.069,0.195-0.093,0.406-0.162,0.601
		c-0.108,0.31,0.031,0.445,0.317,0.452C101.258,55.75,101.743,55.741,102.227,55.741z"/>
	<path fill="#181818" d="M91.891,56.429c0-0.742,0.006-1.483-0.003-2.225c-0.008-0.632-0.04-0.654-0.667-0.666
		c-0.222-0.004-0.524,0.076-0.58-0.227c-0.057-0.307-0.109-0.658,0.1-0.935c0.142-0.188,0.386-0.091,0.591-0.092
		c0.453-0.003,0.531-0.067,0.551-0.513c0.018-0.393,0.006-0.788,0.002-1.182c-0.003-0.325,0.127-0.508,0.472-0.565
		c0.479-0.079,0.95-0.21,1.425-0.311c0.413-0.088,0.542,0.008,0.555,0.457c0.013,0.462-0.008,0.926-0.019,1.389
		c-0.015,0.643,0.056,0.72,0.699,0.723c0.348,0.001,0.695-0.013,1.043-0.008c0.464,0.006,0.525,0.067,0.559,0.509
		c0.055,0.691-0.005,0.754-0.703,0.75c-0.324-0.002-0.649-0.008-0.973-0.001c-0.564,0.012-0.622,0.07-0.625,0.653
		c-0.002,0.417,0.019,0.834,0.021,1.251c0.004,0.811-0.001,1.622,0.005,2.434c0.002,0.278,0.01,0.557,0.046,0.832
		c0.144,1.099,0.674,1.444,1.737,1.145c0.555-0.156,0.59-0.133,0.822,0.552c0.13,0.384,0.047,0.514-0.43,0.69
		c-0.659,0.243-1.338,0.367-2.041,0.368c-0.574,0-1.096-0.167-1.571-0.482c-0.42-0.278-0.706-0.644-0.822-1.154
		c-0.14-0.616-0.185-1.237-0.195-1.863C91.885,57.449,91.892,56.939,91.891,56.429z"/>
	<path fill="#181818" d="M183.714,52.094c0.744-0.027,1.445,0.096,2.114,0.394c0.547,0.244,0.594,0.376,0.303,0.88
		c-0.058,0.1-0.131,0.195-0.172,0.301c-0.141,0.366-0.38,0.394-0.724,0.28c-0.741-0.244-1.49-0.299-2.252-0.042
		c-0.716,0.242-1.176,0.741-1.437,1.409c-0.371,0.947-0.306,1.924,0.018,2.865c0.389,1.131,1.643,1.807,2.857,1.592
		c0.364-0.065,0.729-0.146,1.048-0.353c0.167-0.109,0.354-0.182,0.492,0.014c0.199,0.284,0.368,0.59,0.47,0.925
		c0.072,0.235-0.097,0.327-0.263,0.424c-0.696,0.407-1.457,0.612-2.251,0.654c-1.884,0.102-3.461-0.466-4.536-2.128
		c-1.088-1.682-1.078-5.05,1.675-6.594C181.886,52.25,182.779,52.047,183.714,52.094z"/>
	<path fill="#181818" d="M86.204,61.453c-0.913-0.008-1.807-0.28-2.631-0.805c-0.27-0.172-0.344-0.358-0.16-0.628
		c0.026-0.038,0.047-0.081,0.076-0.116c0.188-0.23,0.237-0.605,0.539-0.696c0.303-0.092,0.454,0.268,0.697,0.39
		c0.483,0.241,0.96,0.471,1.523,0.354c0.784-0.163,1.117-0.919,0.7-1.598c-0.148-0.241-0.352-0.428-0.574-0.599
		c-0.569-0.439-1.151-0.862-1.701-1.323c-0.742-0.622-1.146-1.389-0.894-2.393c0.27-1.072,1.028-1.646,2.044-1.85
		c1.064-0.213,2.127-0.132,3.118,0.381c0.394,0.204,0.41,0.262,0.207,0.639c-0.088,0.163-0.194,0.316-0.289,0.475
		c-0.128,0.216-0.288,0.267-0.524,0.154c-0.25-0.119-0.511-0.221-0.777-0.295c-0.319-0.089-0.642-0.08-0.946,0.084
		c-0.554,0.299-0.659,0.769-0.252,1.245c0.255,0.299,0.522,0.591,0.861,0.805c0.552,0.348,1.015,0.806,1.513,1.222
		c1.318,1.099,1.147,3.383-0.772,4.216C87.423,61.348,86.853,61.445,86.204,61.453z"/>
	<path fill="#181818" d="M168.704,71.792c0,0.441-0.004,0.881,0.002,1.322c0.003,0.226-0.04,0.413-0.287,0.491
		c-1.774,0.56-3.541,0.777-5.255-0.188c-1.64-0.924-2.38-2.491-2.14-4.464c0.204-1.679,1.451-3.04,3.204-3.551
		c1.255-0.366,2.473-0.27,3.679,0.184c0.41,0.155,0.484,0.304,0.338,0.673c-0.205,0.517-0.422,0.671-0.8,0.51
		c-0.945-0.402-1.883-0.42-2.832-0.022c-1.026,0.43-1.524,1.266-1.683,2.304c-0.221,1.438,0.371,2.919,1.697,3.485
		c0.569,0.243,1.158,0.3,1.769,0.164c0.346-0.077,0.516-0.242,0.5-0.621c-0.023-0.532-0.013-1.066,0.009-1.598
		c0.021-0.521,0.054-0.537,0.575-0.527c0.069,0.001,0.139,0.012,0.208,0.012c1.024,0.002,1.023,0.002,1.02,0.994
		c-0.001,0.278,0,0.556,0,0.835C168.707,71.792,168.705,71.792,168.704,71.792z"/>
	<path fill="#181818" d="M168.906,54.677c0-1.99,0.001-3.981-0.001-5.971c0-0.485,0.068-0.572,0.543-0.584
		c0.462-0.011,0.925,0.005,1.387,0.001c0.346-0.003,0.514,0.159,0.509,0.504c-0.003,0.231-0.006,0.463-0.005,0.694
		c0.006,3.773,0.012,7.545,0.019,11.318c0.001,0.487-0.063,0.584-0.538,0.61c-0.484,0.027-0.971,0.012-1.457,0.003
		c-0.341-0.007-0.472-0.182-0.47-0.535c0.013-2.013,0.006-4.027,0.006-6.04C168.903,54.677,168.905,54.677,168.906,54.677z"/>
	<path fill="#181818" d="M112.122,69.404c0,1.274-0.002,2.548,0.001,3.823c0.001,0.588-0.077,0.681-0.674,0.688
		c-0.421,0.005-0.901,0.155-1.056-0.491c-0.053-0.222-0.258-0.076-0.385,0.029c-0.46,0.379-0.969,0.592-1.583,0.602
		c-1.08,0.019-1.817-0.527-2.3-1.409c-0.619-1.131-0.588-2.327-0.066-3.486c0.57-1.268,2.293-1.903,3.559-1.361
		c0.133,0.057,0.235,0.143,0.333,0.242c0.098,0.098,0.203,0.209,0.356,0.144c0.182-0.077,0.177-0.254,0.177-0.416
		c-0.001-0.718-0.003-1.436-0.007-2.154c-0.004-0.666,0.011-0.683,0.703-0.696c0.946-0.017,0.945-0.017,0.944,0.941
		C112.121,67.041,112.122,68.222,112.122,69.404z M110.481,70.795c-0.044-0.619-0.112-1.237-0.566-1.73
		c-0.582-0.632-1.544-0.566-2.029,0.136c-0.543,0.788-0.529,2.464,0.028,3.238c0.545,0.757,1.463,0.773,2.046,0.055
		C110.366,71.994,110.426,71.405,110.481,70.795z"/>
	<path fill="#181818" d="M92.007,73.249c-0.144,0.091-0.228,0.13-0.295,0.189c-1.471,1.298-3.595,0.479-4.127-1.262
		c-0.353-1.155-0.382-2.334,0.396-3.387c0.896-1.213,2.386-1.512,3.69-0.739c0.375,0.222,0.476,0.171,0.479-0.272
		c0.005-0.787,0.003-1.575-0.011-2.363c-0.006-0.338,0.094-0.485,0.47-0.506c1.156-0.063,1.182-0.062,1.187,1.067
		c0.01,2.27,0.017,4.54,0.02,6.81c0,0.254-0.017,0.509-0.042,0.763c-0.016,0.17-0.098,0.336-0.279,0.354
		c-0.298,0.03-0.6,0.019-0.9,0.025C92.195,73.934,92.168,73.57,92.007,73.249z M89.177,70.614c-0.008,0.483,0.017,0.855,0.121,1.212
		c0.213,0.728,0.757,1.197,1.362,1.198c0.569,0.001,1.1-0.449,1.32-1.158c0.203-0.655,0.21-1.323,0.052-1.992
		c-0.089-0.377-0.309-0.675-0.593-0.919c-0.557-0.479-1.213-0.429-1.739,0.094C89.228,69.519,89.198,70.118,89.177,70.614z"/>
	<path fill="#181818" d="M52.42,69.414c0,1.249-0.001,2.499,0,3.748c0.001,0.75,0.002,0.75-0.778,0.754
		c-0.116,0.001-0.231,0.005-0.347,0.01c-0.206,0.01-0.333-0.076-0.441-0.262c-0.23-0.396-0.247-0.393-0.61-0.095
		c-0.373,0.306-0.806,0.419-1.278,0.473c-1.112,0.127-2.159-0.574-2.603-1.59c-0.469-1.073-0.455-2.181,0.026-3.239
		c0.785-1.727,2.912-1.942,3.941-1.192c0.111,0.081,0.217,0.2,0.365,0.134c0.188-0.084,0.139-0.268,0.138-0.426
		c-0.005-0.764-0.017-1.527-0.014-2.291c0.002-0.496,0.07-0.551,0.569-0.541c0.138,0.003,0.277,0.015,0.415,0.011
		c0.584-0.016,0.619,0.01,0.621,0.614c0.005,1.296,0.001,2.592,0.001,3.888C52.424,69.414,52.422,69.414,52.42,69.414z
		 M47.828,70.593c-0.004,0.757,0.192,1.481,0.481,1.897c0.439,0.631,1.342,0.716,1.875,0.177c0.772-0.78,0.869-2.626,0.178-3.493
		c-0.627-0.786-1.748-0.745-2.225,0.196C47.925,69.788,47.844,70.242,47.828,70.593z"/>
	<path fill="#181818" d="M110.609,53.326c0.35-0.091,0.438-0.387,0.614-0.587c0.766-0.874,2.062-0.861,2.804,0.033
		c0.102,0.123,0.113,0.245,0.04,0.382c-0.099,0.183-0.196,0.368-0.296,0.551c-0.155,0.283-0.232,0.649-0.504,0.816
		c-0.278,0.171-0.561-0.115-0.846-0.184c-0.717-0.175-1.417,0.242-1.642,1.012c-0.204,0.698-0.2,1.421-0.211,2.138
		c-0.016,1.043,0,2.086-0.002,3.13c-0.001,0.559-0.072,0.636-0.642,0.65c-0.44,0.011-0.881,0.006-1.321-0.011
		c-0.33-0.013-0.492-0.179-0.483-0.536c0.065-2.596,0.043-5.192,0.024-7.788c-0.004-0.565,0.079-0.644,0.633-0.653
		c0.394-0.006,0.788-0.012,1.182,0c0.548,0.016,0.583,0.059,0.569,0.607C110.524,53.022,110.494,53.161,110.609,53.326z"/>
	<path fill="#181818" d="M64.864,69.589c0-1.205,0.001-2.411,0-3.616c0-0.629,0.006-0.641,0.603-0.643
		c1.159-0.003,2.318-0.003,3.478,0.001c0.577,0.002,0.851,0.521,0.56,1.042c-0.097,0.173-0.256,0.179-0.419,0.179
		c-0.649,0-1.298-0.004-1.946-0.005c-0.454-0.001-0.478,0.014-0.489,0.458c-0.012,0.463-0.002,0.927-0.008,1.391
		c-0.004,0.294,0.137,0.416,0.425,0.412c0.602-0.009,1.205-0.001,1.807-0.012c0.533-0.01,0.599,0.035,0.616,0.492
		c0.023,0.636-0.05,0.737-0.606,0.743c-0.579,0.007-1.158-0.009-1.738-0.014c-0.443-0.004-0.481,0.018-0.492,0.455
		c-0.014,0.556-0.011,1.113-0.007,1.669c0.004,0.506,0.021,0.525,0.567,0.531c0.742,0.009,1.484,0,2.226,0.007
		c0.218,0.002,0.508-0.104,0.598,0.2c0.086,0.288,0.094,0.603-0.061,0.879c-0.108,0.192-0.322,0.15-0.504,0.151
		c-1.089,0.003-2.179,0.002-3.268,0.005c-0.255,0.001-0.51,0.018-0.765,0.008c-0.494-0.021-0.565-0.097-0.566-0.577
		c-0.002-1.252-0.001-2.503-0.001-3.755C64.871,69.589,64.868,69.589,64.864,69.589z"/>
	<path fill="#181818" d="M138.61,70.748c0-0.81-0.009-1.62,0.003-2.43c0.008-0.547,0.05-0.574,0.611-0.572
		c0.185,0,0.37,0.002,0.554-0.007c0.196-0.01,0.383,0.009,0.475,0.207c0.176,0.379,0.385,0.282,0.653,0.092
		c0.697-0.494,1.489-0.477,2.268-0.306c0.643,0.142,1.002,0.634,1.19,1.243c0.096,0.311,0.115,0.636,0.118,0.962
		c0.012,1.134,0.032,2.268,0.042,3.402c0.004,0.459-0.1,0.568-0.568,0.579c-1.348,0.029-1.197-0.013-1.174-1.143
		c0.019-0.926,0.027-1.852,0.004-2.778c-0.025-1.012-0.912-1.535-1.794-1.072c-0.48,0.251-0.662,0.69-0.666,1.21
		c-0.008,1.018-0.017,2.037-0.008,3.055c0.006,0.669-0.026,0.709-0.679,0.73c-1.236,0.04-1.04-0.165-1.026-1.019
		c0.011-0.717,0.002-1.435,0.002-2.153C138.613,70.748,138.612,70.748,138.61,70.748z"/>
	<path fill="#181818" d="M149.356,73.283c-0.329,0.206-0.557,0.469-0.887,0.603c-0.981,0.398-2.019,0.097-2.477-0.749
		c-0.478-0.882-0.218-1.869,0.667-2.492c0.398-0.281,0.814-0.528,1.302-0.634c0.293-0.063,0.581-0.155,0.869-0.242
		c0.21-0.064,0.521-0.005,0.573-0.291c0.056-0.31-0.185-0.505-0.419-0.665c-0.398-0.271-0.826-0.278-1.257-0.099
		c-0.212,0.088-0.413,0.209-0.61,0.328c-0.307,0.185-0.514,0.08-0.697-0.194c-0.176-0.264-0.148-0.452,0.122-0.637
		c0.432-0.296,0.916-0.442,1.42-0.522c0.457-0.073,0.921-0.073,1.384-0.008c1.025,0.143,1.699,0.788,1.784,1.818
		c0.062,0.759,0.035,1.526,0.038,2.289c0.002,0.532-0.003,1.06,0.112,1.587c0.092,0.423-0.018,0.531-0.463,0.541
		c-0.162,0.003-0.324-0.011-0.486-0.012C149.696,73.901,149.696,73.902,149.356,73.283z M149.514,71.153
		c-0.006-0.526-0.07-0.581-0.549-0.414c-0.327,0.114-0.648,0.248-0.968,0.382c-0.248,0.104-0.394,0.31-0.513,0.544
		c-0.185,0.362-0.088,0.68,0.154,0.963c0.239,0.279,0.54,0.318,0.883,0.194C149.166,72.59,149.524,72.002,149.514,71.153z"/>
	<path fill="#181818" d="M186.744,71.247c0.1,0.736-0.053,1.483,0.173,2.211c0.091,0.293-0.052,0.449-0.342,0.459
		c-0.324,0.011-0.649,0.005-0.973-0.006c-0.089-0.003-0.225-0.024-0.256-0.081c-0.348-0.64-0.68-0.28-1.09-0.046
		c-0.812,0.463-1.899,0.422-2.54-0.477c-0.469-0.659-0.429-1.723,0.134-2.307c0.444-0.46,0.984-0.765,1.597-0.939
		c0.423-0.12,0.853-0.22,1.272-0.354c0.363-0.115,0.41-0.31,0.18-0.619c-0.328-0.441-0.914-0.602-1.505-0.382
		c-0.258,0.096-0.5,0.241-0.736,0.386c-0.328,0.201-0.456-0.048-0.611-0.247c-0.17-0.217-0.174-0.426,0.051-0.606
		c0.089-0.071,0.196-0.121,0.298-0.174c0.906-0.464,1.869-0.522,2.846-0.341c0.836,0.155,1.412,0.843,1.491,1.788
		C186.784,70.085,186.744,70.668,186.744,71.247z M185.138,71.241c-0.009-0.429-0.163-0.613-0.474-0.529
		c-0.466,0.126-0.926,0.291-1.306,0.602c-0.366,0.299-0.438,0.902-0.176,1.249c0.275,0.363,0.811,0.426,1.241,0.142
		C184.961,72.349,185.084,71.794,185.138,71.241z"/>
	<path fill="#181818" d="M85.973,71.183c0.065,0.739,0.036,1.479,0.18,2.213c0.082,0.417-0.044,0.53-0.486,0.532
		c-0.231,0.001-0.463-0.025-0.694-0.013c-0.257,0.013-0.442-0.042-0.545-0.311c-0.103-0.27-0.301-0.252-0.494-0.086
		c-0.196,0.169-0.414,0.296-0.651,0.392c-0.908,0.367-1.885,0.074-2.382-0.71c-0.468-0.737-0.262-1.82,0.486-2.435
		c0.376-0.309,0.795-0.56,1.272-0.692c0.379-0.105,0.759-0.206,1.14-0.306c0.599-0.159,0.657-0.367,0.229-0.825
		c-0.328-0.351-0.878-0.444-1.412-0.216c-0.211,0.09-0.398,0.237-0.606,0.335c-0.324,0.153-0.549,0.049-0.733-0.289
		c-0.16-0.294-0.051-0.441,0.219-0.602c0.975-0.584,2.028-0.656,3.086-0.412c0.776,0.179,1.309,0.72,1.381,1.555
		C86.016,69.931,85.973,70.559,85.973,71.183z M84.377,71.239c-0.004-0.058-0.001-0.199-0.028-0.333
		c-0.03-0.152-0.141-0.263-0.296-0.218c-0.576,0.167-1.177,0.295-1.594,0.781c-0.215,0.25-0.243,0.688-0.084,0.98
		c0.178,0.327,0.474,0.463,0.877,0.403C83.933,72.749,84.341,72.192,84.377,71.239z"/>
	<path fill="#181818" d="M57.011,74.054c-1.937-0.005-3.212-1.345-3.219-3.318c-0.006-1.7,1.326-3.145,3.343-3.116
		c1.814,0.026,3.106,1.501,3.091,3.24C60.21,72.718,58.857,74.059,57.011,74.054z M58.49,70.84
		c-0.021-0.276-0.026-0.554-0.065-0.828c-0.053-0.373-0.206-0.71-0.461-0.992c-0.447-0.495-1.305-0.657-1.824-0.061
		c-0.761,0.876-0.829,2.868-0.032,3.731c0.485,0.524,1.194,0.543,1.726,0.057C58.401,72.227,58.481,71.55,58.49,70.84z"/>
	<path fill="#181818" d="M98.346,74.04c-1.832,0.054-3.192-1.264-3.244-3.144c-0.05-1.799,1.233-3.146,2.986-3.261
		c2.214-0.144,3.403,1.467,3.446,3.069C101.585,72.627,100.213,74.1,98.346,74.04z M99.795,70.879
		c-0.002-0.49-0.028-0.962-0.228-1.383c-0.22-0.464-0.514-0.884-1.108-0.925c-0.636-0.043-1.075,0.267-1.323,0.813
		c-0.434,0.956-0.436,1.946-0.003,2.897c0.446,0.98,1.691,1.134,2.272,0.171C99.706,71.953,99.785,71.417,99.795,70.879z"/>
	<path fill="#181818" d="M117.871,56.79c0,1.272,0,2.544,0,3.816c0,0.556-0.082,0.646-0.639,0.655
		c-0.439,0.008-0.879,0.014-1.318-0.006c-0.434-0.02-0.508-0.111-0.508-0.56c0.001-2.614,0.005-5.227,0.01-7.841
		c0.001-0.511,0.049-0.565,0.539-0.578c0.439-0.011,0.879-0.006,1.318,0c0.489,0.006,0.565,0.069,0.577,0.558
		c0.014,0.555,0,1.11-0.001,1.665c-0.001,0.763,0,1.527,0,2.29C117.857,56.79,117.864,56.79,117.871,56.79z"/>
	<path fill="#181818" d="M81.254,56.83c0,1.274,0,2.549,0,3.823c0,0.478-0.078,0.577-0.549,0.6c-0.439,0.021-0.88,0.021-1.32,0.008
		c-0.526-0.016-0.582-0.081-0.581-0.628c0.001-1.645,0.008-3.29,0.009-4.936c0.001-0.927-0.009-1.854-0.007-2.781
		c0.002-0.612,0.02-0.628,0.62-0.635c0.394-0.005,0.788-0.005,1.182-0.001c0.546,0.004,0.605,0.046,0.613,0.587
		c0.015,1.066,0.009,2.132,0.011,3.198c0.001,0.255,0,0.51,0,0.765C81.239,56.83,81.246,56.83,81.254,56.83z"/>
	<path fill="#181818" d="M176.567,56.832c0,1.273-0.002,2.547,0.001,3.82c0.001,0.486-0.058,0.57-0.539,0.591
		c-0.485,0.021-0.972,0.014-1.458,0.015c-0.281,0.001-0.43-0.139-0.428-0.426c0.002-0.232,0.01-0.463,0.01-0.695
		c0-2.247-0.002-4.493-0.003-6.74c0-0.185-0.004-0.371,0.001-0.556c0.015-0.529,0.033-0.551,0.545-0.562
		c0.417-0.009,0.834-0.011,1.251-0.008c0.537,0.004,0.594,0.06,0.595,0.599c0.003,1.32,0.001,2.64,0.001,3.96
		C176.551,56.832,176.559,56.832,176.567,56.832z"/>
	<path fill="#181818" d="M117.041,71.021c-0.44,0-0.88,0.003-1.32-0.001c-0.453-0.004-0.515,0.068-0.433,0.529
		c0.186,1.047,1.353,1.679,2.425,1.309c0.152-0.053,0.292-0.14,0.444-0.197c0.431-0.161,0.633-0.06,0.815,0.365
		c0.087,0.204,0.07,0.365-0.128,0.473c-2.078,1.137-4.456,0.523-5.165-1.444c-0.356-0.988-0.373-2.004,0.18-2.953
		c0.756-1.296,1.958-1.693,3.614-1.347c0.785,0.164,1.184,0.766,1.462,1.456c0.139,0.345,0.203,0.712,0.224,1.085
		c0.031,0.556-0.079,0.695-0.66,0.723c-0.485,0.024-0.972,0.005-1.459,0.005C117.041,71.023,117.041,71.022,117.041,71.021z
		 M116.417,70.158c0-0.003,0-0.006,0-0.01c0.116,0,0.232,0,0.348,0c0.139,0.001,0.279,0.01,0.417,0.002
		c0.395-0.021,0.487-0.128,0.457-0.515c-0.05-0.634-0.599-1.128-1.214-1.09c-0.622,0.038-1.185,0.64-1.174,1.247
		c0.004,0.225,0.113,0.353,0.332,0.362C115.86,70.167,116.139,70.158,116.417,70.158z"/>
	<path fill="#181818" d="M173.439,71.028c-0.44,0-0.88-0.009-1.319,0.003c-0.429,0.012-0.475,0.086-0.372,0.511
		c0.28,1.153,1.367,1.695,2.561,1.274c0.108-0.038,0.208-0.102,0.313-0.148c0.384-0.169,0.873,0.109,0.9,0.512
		c0.011,0.165-0.112,0.249-0.23,0.317c-1.321,0.763-3.224,0.886-4.489-0.412c-1.02-1.047-1.273-3.035-0.24-4.344
		c0.435-0.552,1-0.887,1.677-1.039c0.504-0.113,1.02-0.096,1.52-0.008c0.512,0.09,0.943,0.352,1.255,0.799
		c0.383,0.549,0.578,1.158,0.627,1.814c0.038,0.52-0.079,0.672-0.612,0.71c-0.528,0.037-1.06,0.008-1.59,0.008
		C173.439,71.026,173.439,71.027,173.439,71.028z M173.071,70.148c0.141-0.032,0.395-0.003,0.649,0.01
		c0.251,0.012,0.389-0.111,0.411-0.362c0.054-0.64-0.485-1.234-1.131-1.245c-0.589-0.011-1.065,0.365-1.259,0.995
		c-0.127,0.412-0.036,0.567,0.386,0.599C172.403,70.165,172.681,70.148,173.071,70.148z"/>
	<path fill="#181818" d="M62.323,56.798c0-1.296-0.003-2.592,0.001-3.887c0.002-0.6,0.027-0.621,0.626-0.63
		c0.416-0.006,0.833,0.005,1.249-0.012c0.351-0.014,0.518,0.144,0.525,0.486c0.006,0.301,0.013,0.602,0.013,0.902
		c0,2.291,0,4.582-0.003,6.873c-0.001,0.672-0.073,0.735-0.765,0.731c-0.37-0.002-0.741,0.008-1.111-0.002
		c-0.5-0.013-0.547-0.073-0.546-0.574c0.002-1.296,0.001-2.591,0.001-3.887C62.316,56.798,62.32,56.798,62.323,56.798z"/>
	<path fill="#181818" d="M78.345,70.476c-0.007,0.578-0.044,1.16,0.069,1.731c0.136,0.686,0.371,0.839,1.073,0.741
		c0.455-0.063,0.653,0.053,0.701,0.407c0.02,0.149-0.023,0.269-0.136,0.371c-0.67,0.603-2.499,0.363-3.037-0.385
		c-0.275-0.382-0.328-0.804-0.326-1.25c0.004-0.925,0.004-1.851,0.011-2.776c0.003-0.371-0.005-0.703-0.527-0.69
		c-0.243,0.006-0.357-0.183-0.355-0.427c0.002-0.235,0.092-0.378,0.345-0.44c0.532-0.13,0.53-0.143,0.54-0.66
		c0.002-0.116-0.005-0.231-0.009-0.347c-0.012-0.349,0.103-0.576,0.502-0.597c0.204-0.011,0.403-0.096,0.607-0.135
		c0.387-0.075,0.503,0.009,0.53,0.413c0.019,0.276,0.004,0.555,0.002,0.833c-0.003,0.348,0.178,0.506,0.515,0.502
		c0.231-0.003,0.463-0.01,0.694-0.017c0.3-0.01,0.405,0.171,0.424,0.434c0.021,0.277-0.102,0.454-0.383,0.472
		c-0.253,0.016-0.509,0.003-0.763-0.009c-0.315-0.015-0.478,0.118-0.476,0.442C78.347,69.551,78.345,70.013,78.345,70.476z"/>
	<path fill="#181818" d="M193.991,67.647c0.596-0.006,1.053,0.048,1.481,0.256c0.241,0.117,0.35,0.292,0.257,0.563
		c-0.097,0.283-0.292,0.415-0.586,0.358c-0.134-0.026-0.26-0.095-0.387-0.15c-0.201-0.088-0.404-0.086-0.612-0.031
		c-0.48,0.129-0.635,0.5-0.32,0.889c0.23,0.284,0.536,0.508,0.817,0.75c0.21,0.181,0.427,0.356,0.651,0.519
		c0.638,0.463,0.844,1.101,0.679,1.838c-0.165,0.736-0.751,1.114-1.41,1.309c-0.882,0.26-1.746,0.105-2.55-0.345
		c-0.167-0.093-0.343-0.223-0.292-0.427c0.06-0.243,0.181-0.493,0.403-0.624c0.176-0.104,0.358,0.04,0.507,0.145
		c0.251,0.178,0.512,0.319,0.829,0.316c0.313-0.003,0.605-0.052,0.764-0.372c0.169-0.34,0.062-0.643-0.173-0.892
		c-0.189-0.201-0.421-0.361-0.638-0.534c-0.29-0.23-0.611-0.428-0.872-0.687c-0.446-0.443-0.741-0.966-0.508-1.624
		c0.233-0.66,0.684-1.094,1.395-1.207C193.654,67.66,193.887,67.655,193.991,67.647z"/>
	<path fill="#181818" d="M154.357,74.053c-0.555,0.025-1.118-0.166-1.643-0.487c-0.359-0.22-0.374-0.298-0.151-0.659
		c0.274-0.442,0.351-0.483,0.689-0.275c0.238,0.146,0.46,0.31,0.745,0.357c0.441,0.073,0.789-0.067,0.955-0.392
		c0.151-0.297,0.077-0.616-0.271-0.921c-0.418-0.365-0.867-0.695-1.295-1.05c-0.559-0.464-0.865-1.025-0.631-1.773
		c0.204-0.654,0.857-1.137,1.641-1.195c0.605-0.045,1.205-0.021,1.77,0.245c0.238,0.112,0.376,0.257,0.256,0.545
		c-0.141,0.34-0.323,0.463-0.631,0.369c-0.154-0.047-0.292-0.144-0.447-0.189c-0.315-0.091-0.754,0.033-0.882,0.259
		c-0.186,0.329,0.001,0.589,0.228,0.794c0.463,0.419,0.956,0.805,1.422,1.222c0.313,0.281,0.552,0.602,0.609,1.055
		c0.132,1.055-0.687,1.756-1.397,1.991C155.032,74.044,154.729,74.05,154.357,74.053z"/>
	<path fill="#181818" d="M72.73,74.037c-0.52,0.053-1.067-0.107-1.569-0.429c-0.402-0.257-0.43-0.361-0.203-0.711
		c0.289-0.447,0.321-0.46,0.736-0.199c0.32,0.202,0.649,0.362,1.041,0.305c0.321-0.047,0.56-0.207,0.676-0.523
		c0.104-0.284-0.037-0.494-0.215-0.687c-0.38-0.412-0.878-0.679-1.297-1.043c-0.336-0.291-0.647-0.59-0.74-1.056
		c-0.175-0.88,0.226-1.645,1.081-1.918c0.773-0.247,1.553-0.18,2.311,0.113c0.25,0.096,0.387,0.254,0.276,0.535
		c-0.099,0.253-0.238,0.467-0.559,0.399c-0.157-0.033-0.303-0.11-0.457-0.159c-0.225-0.071-0.455-0.094-0.681-0.003
		c-0.351,0.141-0.469,0.482-0.248,0.786c0.176,0.243,0.416,0.43,0.647,0.625c0.441,0.37,0.925,0.694,1.276,1.167
		c0.429,0.579,0.451,1.359,0.008,1.922C74.307,73.807,73.64,74.117,72.73,74.037z"/>
	<path fill="#181818" d="M177.011,70.821c0-0.786-0.003-1.573,0.001-2.359c0.004-0.701,0.008-0.7,0.68-0.705
		c0.185-0.001,0.37-0.008,0.555-0.01c0.168-0.002,0.287,0.037,0.392,0.209c0.221,0.365,0.27,0.377,0.554,0.039
		c0.298-0.354,0.655-0.42,1.058-0.328c0.338,0.078,0.744,0.188,0.803,0.565c0.058,0.367-0.2,0.699-0.439,0.985
		c-0.123,0.147-0.283,0.078-0.447,0.038c-0.875-0.21-1.249,0.041-1.393,0.935c-0.044,0.273-0.061,0.552-0.065,0.829
		c-0.012,0.74-0.004,1.481-0.018,2.221c-0.012,0.63-0.106,0.71-0.743,0.701c-0.934-0.014-0.935-0.014-0.938-0.967
		C177.009,72.255,177.011,71.538,177.011,70.821z"/>
	<path fill="#181818" d="M136.739,70.888c0,0.811,0.005,1.623-0.002,2.434c-0.005,0.545-0.062,0.595-0.593,0.605
		c-1.269,0.024-1.081-0.086-1.085-1.042c-0.005-1.484-0.004-2.968,0-4.452c0.002-0.685,0.016-0.691,0.706-0.696
		c1.042-0.007,0.987-0.021,0.964,0.994c-0.017,0.718-0.003,1.437-0.003,2.156C136.73,70.888,136.734,70.888,136.739,70.888z"/>
	<path fill="#181818" d="M190.288,70.84c0,0.832,0.004,1.664-0.002,2.497c-0.003,0.494-0.074,0.562-0.55,0.581
		c-1.11,0.045-1.108,0.045-1.107-1.058c0.001-1.457-0.002-2.913-0.003-4.37c0-0.207-0.035-0.424,0.085-0.609
		c0.174-0.269,1.373-0.223,1.525,0.055c0.082,0.15,0.053,0.315,0.053,0.476c-0.001,0.809,0,1.618,0,2.428
		C190.289,70.84,190.289,70.84,190.288,70.84z"/>
	<path fill="#181818" d="M101.333,51.122c-0.272-0.026-0.435-0.17-0.519-0.36c-0.089-0.202,0.109-0.268,0.248-0.346
		c1.13-0.638,2.196-1.378,3.292-2.07c0.408-0.258,0.443-0.25,0.734,0.122c0.157,0.2,0.314,0.4,0.47,0.601
		c0.32,0.412,0.269,0.553-0.245,0.723c-0.791,0.262-1.58,0.53-2.369,0.795c-0.439,0.147-0.878,0.295-1.318,0.441
		C101.518,51.064,101.408,51.098,101.333,51.122z"/>
	<path fill="#181818" d="M149.978,51.111c-0.198-0.009-0.313-0.13-0.437-0.231c-0.197-0.16-0.187-0.309,0.038-0.426
		c0.882-0.46,1.703-1.021,2.545-1.549c0.313-0.196,0.624-0.396,0.931-0.601c0.294-0.196,0.501-0.133,0.683,0.169
		c0.142,0.235,0.339,0.437,0.499,0.662c0.209,0.295,0.176,0.484-0.141,0.594c-1.31,0.454-2.625,0.891-3.939,1.333
		C150.092,51.084,150.025,51.099,149.978,51.111z"/>
	<path fill="#181818" d="M175.318,48.222c0.762-0.014,1.435,0.635,1.433,1.38c-0.002,0.703-0.674,1.368-1.388,1.373
		c-0.796,0.006-1.376-0.541-1.4-1.321C173.938,48.832,174.501,48.237,175.318,48.222z"/>
	<path fill="#181818" d="M78.644,49.623c-0.015-0.82,0.552-1.396,1.377-1.401c0.763-0.004,1.36,0.585,1.367,1.35
		c0.007,0.773-0.563,1.379-1.32,1.404C79.25,51.003,78.659,50.441,78.644,49.623z"/>
	<path fill="#181818" d="M64.885,49.593c-0.005,0.763-0.62,1.396-1.344,1.385c-0.805-0.013-1.433-0.623-1.426-1.386
		c0.007-0.771,0.649-1.393,1.43-1.386C64.297,48.213,64.89,48.827,64.885,49.593z"/>
	<path fill="#181818" d="M115.287,49.604c0.004-0.865,0.507-1.376,1.366-1.387c0.728-0.01,1.383,0.642,1.373,1.366
		c-0.011,0.783-0.653,1.401-1.424,1.393C115.897,50.969,115.129,50.328,115.287,49.604z"/>
	<path fill="#181818" d="M136.861,65.908c-0.011,0.558-0.421,0.969-0.963,0.964c-0.576-0.005-0.964-0.398-0.95-0.96
		c0.014-0.58,0.381-0.916,0.99-0.908C136.496,65.013,136.871,65.38,136.861,65.908z"/>
	<path fill="#181818" d="M190.41,65.922c-0.017,0.576-0.396,0.939-0.978,0.937c-0.554-0.002-0.965-0.428-0.939-0.971
		c0.029-0.587,0.393-0.903,1.011-0.878C190.069,65.033,190.425,65.391,190.41,65.922z"/>
</g>
</svg>
